<?xml version="1.0" encoding="UTF-8" standalone="no"?>
<svg
   version="1.0"
   width="735.37848pt"
   height="265.80109pt"
   viewBox="0 0 735.37848 265.80109"
   preserveAspectRatio="xMidYMid meet"
   id="svg614"
   sodipodi:docname="img1.svg"
   inkscape:version="1.1.2 (0a00cf5339, 2022-02-04, custom)"
   xmlns:inkscape="http://www.inkscape.org/namespaces/inkscape"
   xmlns:sodipodi="http://sodipodi.sourceforge.net/DTD/sodipodi-0.dtd"
   xmlns="http://www.w3.org/2000/svg"
   xmlns:svg="http://www.w3.org/2000/svg">
  <defs
     id="defs618" />
  <sodipodi:namedview
     id="namedview616"
     pagecolor="#ffffff"
     bordercolor="#666666"
     borderopacity="1.0"
     inkscape:pageshadow="2"
     inkscape:pageopacity="0.0"
     inkscape:pagecheckerboard="0"
     inkscape:document-units="pt"
     showgrid="false"
     inkscape:zoom="1.2363281"
     inkscape:cx="713.40284"
     inkscape:cy="301.69984"
     inkscape:window-width="3360"
     inkscape:window-height="1850"
     inkscape:window-x="-12"
     inkscape:window-y="-2172"
     inkscape:window-maximized="1"
     inkscape:current-layer="g612" />
  <g
     transform="matrix(-0.00980163,0.09951848,0.09951848,0.00980163,-71.303674,-23.462365)"
     fill="#000000"
     stroke="none"
     id="g612">
    <path
       d="m 1756,8165 c -3,-8 -1,-15 4,-15 6,0 10,7 10,15 0,8 -2,15 -4,15 -2,0 -6,-7 -10,-15 z"
       id="path258"
       style="opacity:0.8" />
    <path
       style="opacity:0.8;fill:#0000ff;fill-opacity:0.76999998;stroke-width:45.8559"
       d="m 1756,8165 c -13.5592,-67.4106 -21.893,-68.0686 -39.1312,-3.0884 -16.2589,61.289 -46.1659,61.2969 -70.4081,0.019 -10.4849,-26.503 -26.4192,-65.371 -35.4095,-86.3716 -8.9902,-21.0013 -23.0014,-58.0415 -31.1357,-82.3114 -8.1343,-24.2691 -44.1055,-82.6731 -79.9357,-129.7867 -129.8835,-170.7838 -152.4024,-290.9082 -118.8424,-633.9528 20.9782,-214.4357 67.9248,-332.7713 204.899,-516.4772 l 78.1033,-104.7501 -0.042,-80.5749 c -0.023,-44.316 -1.0199,-206.8521 -2.2155,-361.1911 -1.1957,-154.339 -2.4394,-445.2265 -2.764,-646.4167 -1.2873,-798.1688 -3.6219,-957.6366 -14.0205,-957.7614 -4.101,-0.049 -44.1486,38.245 -88.9949,85.0982 -116.8584,122.0882 -314.7381,303.6418 -353.8845,324.6871 -37.1549,19.9747 -88.463,19.8684 -86.4885,-0.1793 0.7016,-7.1228 -14.15,-3.0994 -33.0033,8.9409 -18.8532,12.0404 -41.3416,21.1959 -49.9741,20.3457 -19.35,-1.9058 -626.4272,454.463 -784.45154,589.7096 -63.34111,54.211 -130.62874,118.4373 -149.528034,142.725 -25.905455,33.2913 -79.730137,66.4678 -218.699746,134.802 -252.35946,124.0903 -230.69564,102.6614 -211.52014,209.227 14.01636,77.8945 13.16507,105.7752 -6.74776,221.0011 -33.87374,196.0114 -34.07567,207.5889 -4.24198,243.2331 14.53451,17.3655 113.8824,90.5463 220.77302,162.6242 106.890694,72.0779 201.442378,139.2432 210.114991,149.2563 25.218599,29.1167 0.695376,35.5739 -52.842334,13.9139 -27.2021823,-11.0053 -60.050395,-23.8724 -72.995933,-28.5935 -46.97807,-17.1323 49.009941,43.2492 281.022346,176.7775 129.95112,74.7898 237.63053,141.9441 239.28761,149.2317 7.6239,33.5297 -79.04496,13.7425 -230.26447,-52.5713 -19.86839,-8.713 -19.30097,-5.8888 3.78445,18.833 14.93683,15.9955 49.31458,45.1788 76.395,64.8517 46.5672,33.8292 50.5761,34.7775 73.92493,17.4878 13.57822,-10.0545 37.18413,-15.2378 52.45764,-11.5185 21.58502,5.2564 27.38339,14.9365 26.03424,43.4625 -0.95465,20.1849 15.88514,87.3795 37.42181,149.3216 33.35956,95.9463 36.27919,113.8797 19.7185,121.1176 -13.58564,5.9375 -21.32376,27.6334 -25.6987,72.0534 -7.52022,76.3547 -0.71087,312.3587 11.33562,392.8827 l 8.64085,57.7583 110.80498,2.6791 c 111.94712,2.7065 440.94475,51.7279 637.58035,95.0005 58.7692,12.9326 180.2967,49.4077 270.0612,81.0549 89.7644,31.6481 173.7673,58.5814 186.6733,59.8525 28.216,2.779 31.7507,-25.1859 14.2071,-112.4032 z M 1455.125,4910.8116 c -25.5365,23.1798 -67.4479,23.1977 -65.1659,0.028 2.3823,-24.1881 30.4238,-42.1117 61.1492,-39.0855 32.9647,3.2467 33.8616,11.9673 4.0167,39.0577 z m -255.2437,1496.6987 c -9.9613,-0.9811 -17.3087,-9.934 -16.3276,-19.8952 0.9811,-9.9613 9.9339,-17.3087 19.8952,-16.3276 9.9612,0.981 17.3087,9.9339 16.3276,19.8952 -0.9811,9.9612 -9.934,17.3087 -19.8952,16.3276 z m -89.7979,-914.0504 c -22.0977,-9.8573 -21.6349,-47.8543 0.5561,-45.6687 11.2005,1.1031 17.98,12.1944 16.5192,27.0258 -1.4531,14.7543 -8.513,22.4623 -17.0753,18.6429 z m -11.9132,-95.6624 c -6.6408,-0.6541 -11.2715,-9.3394 -10.2904,-19.3007 0.9811,-9.9613 7.2172,-17.5762 13.858,-16.9222 6.6409,0.6541 11.2717,9.3394 10.2906,19.3007 -0.9811,9.9613 -7.2173,17.5762 -13.8582,16.9222 z m -20.8543,-221.4993 c -10.0619,-0.991 -17.0543,-12.5165 -15.733,-25.9323 1.3214,-13.4159 10.4279,-23.3558 20.4899,-22.3648 10.0618,0.991 17.0543,12.5165 15.733,25.9324 -1.3214,13.4159 -10.428,23.3557 -20.4899,22.3647 z m -8.5978,-98.378 c -6.6409,-0.6541 -11.2716,-9.3394 -10.2905,-19.3006 0.9811,-9.9613 7.2172,-17.5763 13.8582,-16.9223 6.6408,0.6541 11.2715,9.3394 10.2904,19.3007 -0.9811,9.9612 -7.2172,17.5762 -13.8581,16.9222 z m -630.42773,645.0103 c -9.96131,-0.9811 -17.30871,-9.9339 -16.32762,-19.8952 0.9811,-9.9613 9.93392,-17.3087 19.89522,-16.3276 9.96123,0.981 17.30871,9.9339 16.32762,19.8952 -0.9811,9.9613 -9.934,17.3087 -19.89522,16.3276 z M 82.725786,5852.9236 c -23.842925,29.5924 -81.2113799,34.2099 -78.4640368,6.3154 1.9199996,-19.4942 70.2770948,-74.6033 90.1143878,-72.6496 20.331173,2.0025 14.797763,33.5084 -11.650351,66.3342 z M -192.4108,6185.0428 c -9.9613,-0.9811 -17.30871,-9.9339 -16.32761,-19.8952 0.98108,-9.9612 9.93392,-17.3087 19.89522,-16.3276 9.96123,0.9811 17.3087,9.934 16.32761,19.8952 -0.98109,9.9613 -9.93399,17.3087 -19.89522,16.3276 z m -8.59779,-98.3781 c -6.64085,-0.654 -11.27162,-9.3393 -10.29053,-19.3006 0.98109,-9.9612 7.21729,-17.5763 13.85813,-16.9222 6.64085,0.6541 11.27154,9.3394 10.29045,19.3006 -0.98109,9.9613 -7.21721,17.5763 -13.85805,16.9222 z m -89.09451,161.9048 c -13.28176,-1.3082 -23.61345,-7.8119 -22.95939,-14.4527 0.65407,-6.6408 12.05603,-11.004 25.33779,-9.6959 13.28168,1.3082 23.61337,7.8119 22.95931,14.4527 -0.65407,6.6408 -12.05603,11.004 -25.33771,9.6959 z"
       id="path2723" />
    <path
       style="opacity:0.8;mix-blend-mode:normal;fill:#1e1d44;fill-opacity:1;stroke-width:45.86;stroke-miterlimit:4;stroke-dasharray:none"
       d="m 1824.7404,4392.7771 c -16.235,-60.6132 -42.9306,-277.0958 -45.5001,-368.9744 -3.0788,-110.0882 2.8149,-247.2039 29.5365,-687.1545 26.2204,-431.6994 28.9401,-607.1159 12.4321,-801.8518 -15.7268,-185.5206 -77.2521,-776.8793 -134.262,-1290.4778 -21.5514,-194.1557 -38.8095,-356.81732 -38.3512,-361.47029 1.6952,-17.21137 -394.8272,-13.10561 -521.4268,5.39908 -64.3065,9.3995 -124.9345,54.44035 -107.6632,79.98347 6.9534,10.28353 6.6932,35.67634 -0.6419,62.64714 -16.8439,61.9339 -4.8029,215.1998 116.0713,1477.4403 119.1805,1244.5544 114.2814,1181.6306 91.8283,1179.4192 -6.249,-0.6155 -13.4823,-5.449 -16.074,-10.7411 -7.1954,-14.6922 -43.925,-330.2232 -136.0229,-1168.5182 C 982.73536,1671.6996 907.35436,1004.5496 900.874,970.34972 898.59404,958.31738 881.88006,938.84128 863.73187,927.0695 824.53173,901.64246 691.56398,884.71092 702.23748,906.50549 c 4.79762,9.79633 -3.96431,10.63205 -28.34682,2.7038 -31.99857,-10.4047 -330.49002,7.08203 -386.41466,22.63759 -14.87825,4.13839 -23.22682,19.20802 -25.94808,46.83768 -4.3259,43.92204 38.63569,496.18714 101.60238,1069.58904 114.25371,1040.4432 125.69239,1179.5754 95.05601,1156.2008 -13.9277,-10.6264 -33.96685,-141.0924 -85.69174,-557.8996 -24.42971,-196.859 -73.67581,-593.9678 -109.43566,-882.4639 -75.14837,-606.2661 -98.14687,-767.10431 -112.19025,-784.59436 -31.374,-39.07411 -18.13279,189.66206 88.33486,1525.92056 34.28665,430.3273 86.24558,1020.7081 133.12754,1512.6546 61.54195,645.7788 71.03707,802.0635 57.37632,944.3893 -15.11518,157.4778 -22.22186,451.3612 -11.23863,464.7442 10.98168,13.3812 100.76827,-48.6587 350.81568,-242.4034 229.76195,-178.0268 339.16947,-256.251 457.33397,-326.9852 270.6152,-161.9918 470.4098,-299.9078 555.0343,-383.1336 43.9649,-43.2383 50.2494,-55.1875 43.0877,-81.9259 z m -493.32,329.3462 c -6.6408,-0.6541 -11.2715,-9.3394 -10.2904,-19.3006 0.9811,-9.9613 7.2172,-17.5763 13.8581,-16.9222 6.6408,0.654 11.2715,9.3393 10.2904,19.3006 -0.9811,9.9612 -7.2172,17.5763 -13.8581,16.9222 z m -7.3174,-49.4864 c -6.6409,-0.654 -10.7365,-14.7727 -9.1013,-31.3749 1.6351,-16.6021 8.4064,-29.6505 15.0473,-28.9964 6.6409,0.654 10.7364,14.7727 9.1013,31.3749 -1.6352,16.6021 -8.4064,29.6505 -15.0473,28.9964 z m -12.2566,-123.1211 c -6.6408,-0.6541 -11.0039,-12.0561 -9.6958,-25.3378 1.3081,-13.2817 7.8118,-23.6135 14.4527,-22.9594 6.6408,0.6541 11.0039,12.0561 9.6958,25.3378 -1.3081,13.2817 -7.8118,23.6134 -14.4527,22.9594 z m -12.0437,-83.4782 c -2.5319,-8.631 -1.194,-22.2145 2.973,-30.1858 4.1671,-7.9711 6.2388,-0.9094 4.6037,15.6927 -1.6352,16.6022 -5.0448,23.124 -7.5767,14.4931 z m -6.3411,-101.2036 c -6.6408,-0.6541 -10.7364,-14.7728 -9.1012,-31.375 1.6352,-16.6021 8.4064,-29.6505 15.0473,-28.9965 6.6408,0.6541 10.7364,14.7728 9.1012,31.3749 -1.6351,16.6022 -8.4064,29.6506 -15.0473,28.9966 z m -15.5941,-86.8758 c -6.5143,-0.6416 -13.0142,-13.6255 -14.4442,-28.8533 -1.4299,-15.2277 -6.6997,-71.9796 -11.7108,-126.1153 -5.011,-54.1357 -15.5049,-145.6904 -23.3197,-203.4549 -16.53,-122.1847 -12.0509,-213.0926 10.014,-203.241 17.5255,7.8249 37.2084,148.334 40.5278,289.3154 1.3307,56.519 6.9443,112.6398 12.4745,124.7126 13.0129,28.4083 1.9372,149.161 -13.5411,147.6366 z m -606.23584,830.2641 c -6.64084,-0.654 -11.00396,-12.0561 -9.69584,-25.3378 1.30812,-13.2816 7.81181,-23.6134 14.45266,-22.9593 6.64084,0.654 11.00396,12.0561 9.69584,25.3377 -1.30812,13.2817 -7.81181,23.6135 -14.45266,22.9594 z M 660.909,5018.5246 c -3.61706,-4.4073 -3.0203,-14.8638 1.32602,-23.2363 4.80308,-9.2524 7.38243,-6.1096 6.57642,8.0134 -0.72965,12.7798 -4.28547,19.6302 -7.90252,15.2229 z m -7.66213,-94.9841 c -6.64084,-0.6541 -11.27154,-9.3394 -10.29045,-19.3007 0.98109,-9.9612 7.21721,-17.5762 13.85806,-16.9222 6.64084,0.6541 11.27153,9.3394 10.29045,19.3006 -0.9811,9.9613 -7.21722,17.5763 -13.85806,16.9223 z m -52.59376,-456.262 c -6.64085,-0.6541 -10.73641,-14.7727 -9.10125,-31.3749 1.63515,-16.6021 8.40641,-29.6505 15.04725,-28.9965 6.64085,0.6541 10.73641,14.7728 9.10125,31.3749 -1.63515,16.6022 -8.40641,29.6505 -15.04725,28.9965 z m -8.34427,-113.8463 c -3.61698,-4.4073 -3.0203,-14.8637 1.32602,-23.2363 4.80309,-9.2523 7.38244,-6.1095 6.57643,8.0134 -0.72965,12.7799 -4.28547,19.6303 -7.90245,15.2229 z m -10.04053,-70.8355 c -6.64085,-0.6541 -10.73641,-14.7727 -9.10125,-31.3749 1.63515,-16.6021 8.40642,-29.6506 15.04726,-28.9965 6.64084,0.654 10.7364,14.7728 9.10124,31.3749 -1.63515,16.6022 -8.40641,29.6505 -15.04725,28.9965 z m -1.48492,-103.7732 c -11.40475,21.5323 -12.98665,20.6725 -22.33061,-12.1366 -13.93039,-48.9132 -3.35445,-152.5027 13.47579,-131.9949 6.87975,8.3831 14.47282,36.2872 16.87352,62.0094 5.64689,60.5039 6.14761,55.3757 -8.02041,82.122 z m -27.62255,-170.6064 c -3.61705,-4.4073 -3.0203,-14.8637 1.32602,-23.2362 4.80309,-9.2524 7.38244,-6.1096 6.57642,8.0134 -0.72964,12.7798 -4.28547,19.6302 -7.90251,15.2228 z m -14.76682,-104.8273 c -2.53198,-8.631 -1.19413,-22.2145 2.97301,-30.1857 4.16715,-7.9712 6.23874,-0.9095 4.60358,15.6927 -1.63515,16.6021 -5.04459,23.124 -7.57659,14.493 z m -8.50039,-64.8421 c -14.96285,-1.4737 -20.85627,-47.2578 -14.30515,-111.1316 5.16546,-50.365 6.69125,-52.4822 20.98955,-29.1289 16.5751,27.0719 11.09734,142.0118 -6.6844,140.2605 z m -20.87352,-194.2511 c -6.97349,-8.4971 -11.65174,-47.0864 -10.3961,-85.7542 2.18082,-67.1594 2.96569,-68.8738 17.54313,-38.3232 18.66276,39.1124 12.39686,147.8918 -7.14703,124.0774 z m -17.60436,-168.9892 c -16.52936,-12.6116 -36.32633,-129.5152 -31.03333,-183.2564 5.67558,-57.6256 27.48525,-53.4732 43.14139,8.2137 13.20023,52.0103 3.84772,187.2163 -12.10806,175.0427 z"
       id="path3267" />
    <path
       style="opacity:0.188679;fill:#0e100d;fill-opacity:1;stroke-width:6.11412"
       d=""
       id="path3540"
       transform="matrix(-0.73512226,7.4638861,7.4638861,0.73512226,-999.80871,664.41793)" />
    <path
       style="opacity:0.188679;fill:#0e100d;fill-opacity:1;stroke-width:6.11412"
       d=""
       id="path4549"
       transform="matrix(-0.73512226,7.4638861,7.4638861,0.73512226,-999.80871,664.41793)" />
    <path
       style="opacity:0.8;fill:#100e0d;fill-opacity:1;stroke-width:45.8559"
       d="m 2498.3464,1947.6914 c -1.123,-40.3423 -11.3629,-118.8624 -22.7554,-174.4892 -16.7046,-81.5644 -29.0325,-110.2886 -63.6945,-148.4096 -53.1819,-58.4888 -144.7816,-90.3915 -258.2561,-89.9464 -98.8716,0.3879 -163.8686,24.5028 -258.2108,95.8003 l -75.2404,56.8617 10.4994,201.3566 c 12.5516,240.7179 49.2797,618.2831 63.4723,652.4961 10.8588,26.1769 26.1434,30.4907 129.9911,36.6875 72.7808,4.3431 145.931,-15.7953 206.4373,-56.8327 l 38.851,-26.35 9.6349,-135.6518 c 8.9522,-126.0381 11.1727,-135.1958 31.3323,-129.2169 14.2795,4.235 27.8786,31.4007 39.7786,79.4623 l 18.0815,73.0274 24.7302,-50.688 c 71.7818,-147.1268 108.2446,-280.0722 105.3486,-384.1073 z"
       id="path4896" />
    <path
       style="opacity:0.8;fill:#0e100d;fill-opacity:1;stroke-width:45.8559"
       d="m 2196.2678,7170.373 c -1.123,-40.3423 -11.3629,-118.8624 -22.7554,-174.4892 -16.7046,-81.5644 -29.0325,-110.2886 -63.6945,-148.4096 -53.1819,-58.4888 -144.7816,-90.3915 -258.2561,-89.9464 -98.8716,0.3879 -163.8686,24.5029 -258.2108,95.8003 l -75.2404,56.8617 10.4994,201.3566 c 12.5516,240.7179 49.2797,618.2831 63.4723,652.4961 10.8589,26.1769 26.1434,30.4907 129.9911,36.6876 72.7808,4.3431 145.931,-15.7954 206.4373,-56.8327 l 38.851,-26.3501 9.6349,-135.6518 c 8.9522,-126.0381 11.1727,-135.1958 31.3323,-129.2169 14.2795,4.235 27.8787,31.4007 39.7786,79.4623 l 18.0815,73.0274 24.7302,-50.688 c 71.7819,-147.1268 108.2446,-280.0722 105.3486,-384.1073 z"
       id="path4896-4" />
  </g>
</svg>
