<?xml version="1.0" encoding="UTF-8" standalone="no"?>
<!-- Created with Inkscape (http://www.inkscape.org/) -->

<svg
   version="1.1"
   id="svg828"
   width="250"
   height="250"
   viewBox="0 0 250 250"
   sodipodi:docname="Go2.svg"
   inkscape:version="1.1.2 (0a00cf5339, 2022-02-04, custom)"
   xmlns:inkscape="http://www.inkscape.org/namespaces/inkscape"
   xmlns:sodipodi="http://sodipodi.sourceforge.net/DTD/sodipodi-0.dtd"
   xmlns:xlink="http://www.w3.org/1999/xlink"
   xmlns="http://www.w3.org/2000/svg"
   xmlns:svg="http://www.w3.org/2000/svg">
  <defs
     id="defs832">
    <clipPath
       clipPathUnits="userSpaceOnUse"
       id="clipPath837">
      <g
         inkscape:label="Clip"
         id="use839">
        <path
           style="fill:#0000ff;fill-opacity:1;stroke:none;stroke-width:1.43103px;stroke-linecap:butt;stroke-linejoin:miter;stroke-opacity:1"
           d="m 216.18751,55.448082 c 7.52424,-66.147424 79.23716,-86.617489 92.6197,-72.815458 12.10349,12.4828901 -68.51114,11.671443 -92.6197,72.815458 z"
           id="path907"
           sodipodi:nodetypes="csc" />
        <path
           style="fill:#0000ff;fill-opacity:1;stroke:none;stroke-width:1.43103px;stroke-linecap:butt;stroke-linejoin:miter;stroke-opacity:1"
           d="m 219.61768,93.421462 c -25.10076,-62.897424 91.62105,-97.783438 98.1197,-79.690458 6.72849,18.73289 -93.01114,10.421443 -98.1197,79.690458 z"
           id="path909"
           sodipodi:nodetypes="csc" />
        <path
           style="fill:#0000ff;fill-opacity:1;stroke:none;stroke-width:1.43103px;stroke-linecap:butt;stroke-linejoin:miter;stroke-opacity:1"
           d="m 339.58047,146.6912 c 84.60076,-42.52242 45.82512,-150.654699 17.3712,-133.054226 -18.44426,11.408892 -34.53787,28.173858 -29.63052,33.815061 10.25832,11.792385 29.21314,-11.681916 34.9701,-4.726688 16.81494,20.314844 8.53218,77.923363 -22.71078,103.965853 z"
           id="path911"
           sodipodi:nodetypes="csssc" />
        <path
           style="fill:#0000ff;fill-opacity:1;stroke:none;stroke-width:1.43103px;stroke-linecap:butt;stroke-linejoin:miter;stroke-opacity:1"
           d="m 238.56729,126.035 c -51.97576,-54.647424 61.37105,-88.408438 71.3697,-71.940458 10.33024,17.01411 -94.26114,11.671443 -71.3697,71.940458 z"
           id="path913"
           sodipodi:nodetypes="csc" />
        <path
           style="fill:#0000ff;fill-opacity:1;stroke:none;stroke-width:1.43103px;stroke-linecap:butt;stroke-linejoin:miter;stroke-opacity:1"
           d="m 264.70395,145.54099 c -65.60076,-30.89742 23.8766,-71.635987 35.7447,-54.065453 6.48345,9.598653 -77.75636,16.309463 -35.7447,54.065453 z"
           id="path915"
           sodipodi:nodetypes="csc" />
      </g>
    </clipPath>
    <clipPath
       clipPathUnits="userSpaceOnUse"
       id="clipPath2530">
      <g
         inkscape:label="Clip"
         id="use2532">
        <g
           id="g876"
           clip-path="url(#clipPath837)"
           transform="matrix(1.3669709,0,0,1.357645,-113.0789,-10.970799)">
          <g
             inkscape:label="Clip"
             id="g874">
            <path
               style="fill:#0000ff;fill-opacity:1;stroke:none;stroke-width:1.43103px;stroke-linecap:butt;stroke-linejoin:miter;stroke-opacity:1"
               d="m 216.18751,55.448082 c 7.52424,-66.147424 79.23716,-86.617489 92.6197,-72.815458 12.10349,12.4828901 -68.51114,11.671443 -92.6197,72.815458 z"
               id="path864"
               sodipodi:nodetypes="csc" />
            <path
               style="fill:#0000ff;fill-opacity:1;stroke:none;stroke-width:1.43103px;stroke-linecap:butt;stroke-linejoin:miter;stroke-opacity:1"
               d="m 219.61768,93.421462 c -25.10076,-62.897424 91.62105,-97.783438 98.1197,-79.690458 6.72849,18.73289 -93.01114,10.421443 -98.1197,79.690458 z"
               id="path866"
               sodipodi:nodetypes="csc" />
            <path
               style="fill:#0000ff;fill-opacity:1;stroke:none;stroke-width:1.43103px;stroke-linecap:butt;stroke-linejoin:miter;stroke-opacity:1"
               d="m 339.58047,146.6912 c 84.60076,-42.52242 45.82512,-150.654699 17.3712,-133.054226 -18.44426,11.408892 -34.53787,28.173858 -29.63052,33.815061 10.25832,11.792385 29.21314,-11.681916 34.9701,-4.726688 16.81494,20.314844 8.53218,77.923363 -22.71078,103.965853 z"
               id="path868"
               sodipodi:nodetypes="csssc" />
            <path
               style="fill:#0000ff;fill-opacity:1;stroke:none;stroke-width:1.43103px;stroke-linecap:butt;stroke-linejoin:miter;stroke-opacity:1"
               d="m 238.56729,126.035 c -51.97576,-54.647424 61.37105,-88.408438 71.3697,-71.940458 10.33024,17.01411 -94.26114,11.671443 -71.3697,71.940458 z"
               id="path870"
               sodipodi:nodetypes="csc" />
            <path
               style="fill:#0000ff;fill-opacity:1;stroke:none;stroke-width:1.43103px;stroke-linecap:butt;stroke-linejoin:miter;stroke-opacity:1"
               d="m 264.70395,145.54099 c -65.60076,-30.89742 23.8766,-71.635987 35.7447,-54.065453 6.48345,9.598653 -77.75636,16.309463 -35.7447,54.065453 z"
               id="path872"
               sodipodi:nodetypes="csc" />
          </g>
        </g>
        <ellipse
           style="opacity:0.188679;fill:#aaaaaa;fill-opacity:1;stroke-width:4.3773"
           id="ellipse878"
           cx="303.13895"
           cy="66.131866"
           rx="87.681236"
           ry="88.388351"
           transform="matrix(1.3669709,0,0,1.357645,-113.0789,-10.970799)" />
      </g>
    </clipPath>
    <clipPath
       clipPathUnits="userSpaceOnUse"
       id="clipPath837-5">
      <use
         x="0"
         y="0"
         xlink:href="#g832"
         id="use839-4"
         width="100%"
         height="100%"
         transform="matrix(0.73154447,0,0,0.73656957,82.832422,8.107984)" />
    </clipPath>
  </defs>
  <sodipodi:namedview
     id="namedview830"
     pagecolor="#ffffff"
     bordercolor="#666666"
     borderopacity="1.0"
     inkscape:pageshadow="2"
     inkscape:pageopacity="0.0"
     inkscape:pagecheckerboard="0"
     showgrid="false"
     inkscape:zoom="2.8284272"
     inkscape:cx="117.02617"
     inkscape:cy="125.33467"
     inkscape:window-width="1920"
     inkscape:window-height="1058"
     inkscape:window-x="-6"
     inkscape:window-y="-6"
     inkscape:window-maximized="1"
     inkscape:current-layer="g913"
     showguides="false" />
  <g
     inkscape:groupmode="layer"
     inkscape:label="Image"
     id="g834">
    <g
       id="g913"
       transform="translate(-176.44549,46.187204)">
      <ellipse
         style="opacity:0.188679;fill:#aaaaaa;fill-opacity:1;stroke-width:5.9632"
         id="path960"
         cx="301.30322"
         cy="78.812798"
         rx="119.8577"
         ry="120" />
      <g
         inkscape:label="Clip"
         id="g832"
         transform="matrix(1.3669709,0,0,1.357645,-113.22951,-11.007764)">
        <path
           style="fill:#0000ff;fill-opacity:1;stroke:none;stroke-width:1.43103px;stroke-linecap:butt;stroke-linejoin:miter;stroke-opacity:1"
           d="m 216.18751,55.448082 c 7.52424,-66.147424 79.23716,-86.617489 92.6197,-72.815458 12.10349,12.4828901 -68.51114,11.671443 -92.6197,72.815458 z"
           id="path3361"
           sodipodi:nodetypes="csc" />
        <path
           style="fill:#0000ff;fill-opacity:1;stroke:none;stroke-width:1.43103px;stroke-linecap:butt;stroke-linejoin:miter;stroke-opacity:1"
           d="m 219.61768,93.421462 c -25.10076,-62.897424 91.62105,-97.783438 98.1197,-79.690458 6.72849,18.73289 -93.01114,10.421443 -98.1197,79.690458 z"
           id="path3361-2"
           sodipodi:nodetypes="csc" />
        <path
           style="fill:#0000ff;fill-opacity:1;stroke:none;stroke-width:1.43103px;stroke-linecap:butt;stroke-linejoin:miter;stroke-opacity:1"
           d="m 339.58047,146.6912 c 84.60076,-42.52242 45.82512,-150.654699 17.3712,-133.054226 -18.44426,11.408892 -34.53787,28.173858 -29.63052,33.815061 10.25832,11.792385 29.21314,-11.681916 34.9701,-4.726688 16.81494,20.314844 8.53218,77.923363 -22.71078,103.965853 z"
           id="path3361-2-2"
           sodipodi:nodetypes="csssc" />
        <path
           style="fill:#0000ff;fill-opacity:1;stroke:none;stroke-width:1.43103px;stroke-linecap:butt;stroke-linejoin:miter;stroke-opacity:1"
           d="m 238.56729,126.035 c -51.97576,-54.647424 61.37105,-88.408438 71.3697,-71.940458 10.33024,17.01411 -94.26114,11.671443 -71.3697,71.940458 z"
           id="path3361-2-1"
           sodipodi:nodetypes="csc" />
        <path
           style="fill:#0000ff;fill-opacity:1;stroke:none;stroke-width:1.43103px;stroke-linecap:butt;stroke-linejoin:miter;stroke-opacity:1"
           d="m 264.70395,145.54099 c -65.60076,-30.89742 23.8766,-71.635987 35.7447,-54.065453 6.48345,9.598653 -77.75636,16.309463 -35.7447,54.065453 z"
           id="path3361-2-1-5"
           sodipodi:nodetypes="csc" />
      </g>
    </g>
  </g>
</svg>
